<svg width="80" height="80" viewBox="0 0 80 80" fill="none" xmlns="http://www.w3.org/2000/svg">
<path d="M40 0C62.092 0 80 17.908 80 40C80 62.092 62.092 79.9999 40 79.9999C32.9311 80.0114 25.9867 78.1406 19.88 74.58L0.0160563 79.9999L5.42405 60.128C1.86043 54.0195 -0.0117535 47.072 5.55209e-05 40C5.55209e-05 17.908 17.908 0 40 0ZM26.368 21.2L25.568 21.232C25.0501 21.2635 24.544 21.3996 24.08 21.632C23.6461 21.8777 23.25 22.1849 22.904 22.544C22.424 22.996 22.152 23.388 21.86 23.768C20.3805 25.6916 19.5839 28.0532 19.596 30.48C19.604 32.44 20.116 34.348 20.916 36.132C22.552 39.74 25.244 43.56 28.796 47.1C29.652 47.952 30.492 48.808 31.396 49.604C35.8096 53.4898 41.069 56.2921 46.756 57.788L49.028 58.136C49.768 58.176 50.508 58.12 51.252 58.084C52.417 58.0238 53.5545 57.7084 54.584 57.16C55.1078 56.8901 55.619 56.5965 56.116 56.28C56.116 56.28 56.288 56.168 56.616 55.92C57.156 55.52 57.488 55.236 57.936 54.768C58.268 54.424 58.556 54.02 58.776 53.56C59.088 52.908 59.4 51.664 59.528 50.628C59.624 49.836 59.596 49.404 59.584 49.136C59.568 48.708 59.212 48.264 58.824 48.076L56.496 47.032C56.496 47.032 53.016 45.516 50.888 44.548C50.6653 44.4507 50.4267 44.3952 50.184 44.384C49.9103 44.3559 49.6338 44.3867 49.373 44.4743C49.1122 44.5619 48.8732 44.7043 48.672 44.892C48.652 44.884 48.384 45.112 45.492 48.616C45.326 48.839 45.0974 49.0076 44.8352 49.1002C44.5731 49.1928 44.2893 49.2053 44.02 49.136C43.7595 49.0661 43.5041 48.9779 43.256 48.872C42.76 48.664 42.588 48.584 42.248 48.44C39.9523 47.4382 37.8268 46.0846 35.948 44.428C35.444 43.988 34.976 43.508 34.496 43.044C32.9224 41.5369 31.5509 39.832 30.416 37.972L30.18 37.592C30.0105 37.3366 29.8735 37.0612 29.772 36.772C29.62 36.184 30.016 35.712 30.016 35.712C30.016 35.712 30.988 34.648 31.44 34.072C31.88 33.512 32.252 32.968 32.492 32.58C32.964 31.82 33.112 31.04 32.864 30.436C31.744 27.7 30.584 24.976 29.392 22.272C29.156 21.736 28.456 21.352 27.82 21.276C27.604 21.252 27.388 21.228 27.172 21.212C26.6349 21.1853 26.0966 21.1906 25.56 21.228L26.364 21.196L26.368 21.2Z" fill="black"/>
</svg>
